<?xml version="1.0" standalone="no"?>
<!DOCTYPE svg PUBLIC "-//W3C//DTD SVG 20010904//EN"
 "http://www.w3.org/TR/2001/REC-SVG-20010904/DTD/svg10.dtd">
<svg version="1.0" xmlns="http://www.w3.org/2000/svg"
 width="875.000000pt" height="866.000000pt" viewBox="0 0 875.000000 866.000000"
 preserveAspectRatio="xMidYMid meet">
<metadata>
Created by potrace 1.13, written by Peter Selinger 2001-2015
</metadata>
<g transform="translate(0.000000,866.000000) scale(0.100000,-0.100000)"
fill="#000000" stroke="none">
<path d="M4060 8529 c-448 -38 -847 -129 -1241 -285 -1074 -423 -1940 -1289
-2363 -2363 -552 -1399 -317 -2986 613 -4156 643 -808 1562 -1357 2563 -1530
288 -49 414 -60 733 -60 319 0 445 11 733 60 927 160 1797 649 2422 1362 513
585 855 1295 985 2045 49 288 60 414 60 733 0 319 -11 445 -60 733 -142 823
-545 1606 -1139 2210 -642 656 -1479 1082 -2388 1216 -279 42 -668 56 -918 35z
m560 -189 c708 -48 1359 -265 1940 -646 602 -395 1076 -927 1398 -1570 561
-1121 561 -2457 0 -3578 -127 -254 -287 -504 -464 -726 -138 -173 -441 -476
-614 -614 -140 -112 -386 -279 -525 -358 -1013 -574 -2208 -684 -3303 -306
-751 259 -1417 745 -1897 1383 -727 967 -978 2220 -681 3396 247 975 849 1818
1696 2373 722 474 1594 704 2450 646z"/>
<path d="M1987 6702 l-1217 -1217 1152 -1153 1153 -1152 -733 -733 -732 -732
70 -70 70 -70 733 733 732 732 1150 -1150 1150 -1150 1220 1220 1220 1220
-1150 1150 -1150 1150 735 735 735 735 -70 70 -70 70 -735 -735 -735 -735
-1150 1150 c-632 633 -1152 1150 -1155 1150 -3 0 -553 -548 -1223 -1218z
m2308 -2302 l-1085 -1085 -1082 1083 -1083 1082 1085 1085 1085 1085 1082
-1082 1083 -1083 -1085 -1085z m2310 -140 l1080 -1080 -1085 -1085 -1085
-1085 -1082 1082 -1083 1083 1082 1082 c596 596 1085 1083 1088 1083 3 0 491
-486 1085 -1080z"/>
<path d="M2630 6170 l0 -80 240 0 240 0 0 -670 0 -670 100 0 100 0 0 670 0
670 240 0 240 0 0 80 0 80 -580 0 -580 0 0 -80z"/>
<path d="M4930 3870 l0 -80 240 0 240 0 0 -670 0 -670 100 0 100 0 0 670 0
670 240 0 240 0 0 80 0 80 -580 0 -580 0 0 -80z"/>
</g>
</svg>
