<?xml version="1.0" standalone="no"?>
<!DOCTYPE svg PUBLIC "-//W3C//DTD SVG 20010904//EN"
 "http://www.w3.org/TR/2001/REC-SVG-20010904/DTD/svg10.dtd">
<svg version="1.0" xmlns="http://www.w3.org/2000/svg"
 width="1282.000000pt" height="822.000000pt" viewBox="0 0 1282.000000 822.000000"
 preserveAspectRatio="xMidYMid meet">
<metadata>
Created by potrace 1.13, written by Peter Selinger 2001-2015
</metadata>
<g transform="translate(0.000000,822.000000) scale(0.100000,-0.100000)"
fill="#000000" stroke="none">
<path d="M5095 8114 c-38 -8 -113 -36 -165 -61 -78 -38 -110 -62 -175 -128
-66 -65 -89 -97 -127 -175 -82 -167 -78 -90 -78 -1475 0 -1382 -4 -1307 77
-1474 80 -167 237 -298 428 -357 57 -18 119 -19 1350 -19 1224 0 1293 1 1350
18 230 71 411 252 482 482 17 57 18 126 18 1350 0 1231 -1 1293 -19 1350 -59
191 -190 348 -357 428 -167 81 -90 77 -1481 76 -1042 -1 -1244 -3 -1303 -15z
m2590 -209 c172 -45 305 -179 350 -352 23 -86 23 -2470 0 -2556 -45 -173 -178
-307 -350 -352 -88 -22 -2471 -23 -2558 0 -173 45 -307 178 -352 350 -22 88
-23 2471 0 2558 45 171 177 306 346 351 83 23 2478 23 2564 1z"/>
<path d="M6050 6324 l-352 -377 48 -48 c26 -26 51 -46 56 -43 4 3 142 150 305
327 163 177 299 322 302 322 4 0 143 -148 310 -328 l303 -329 44 43 c25 24 43
49 42 56 -4 15 -687 753 -698 753 -5 0 -167 -169 -360 -376z"/>
<path d="M715 3804 c-38 -8 -113 -36 -165 -61 -78 -38 -110 -62 -175 -128 -66
-65 -89 -97 -127 -175 -82 -167 -78 -90 -78 -1475 0 -1382 -4 -1307 77 -1474
80 -167 237 -298 428 -357 57 -18 119 -19 1350 -19 1224 0 1293 1 1350 18 230
71 411 252 482 482 17 57 18 126 18 1350 0 1231 -1 1293 -19 1350 -59 191
-190 348 -357 428 -167 81 -90 77 -1481 76 -1042 -1 -1244 -3 -1303 -15z
m2590 -209 c172 -45 305 -179 350 -352 23 -86 23 -2470 0 -2556 -45 -173 -178
-307 -350 -352 -88 -22 -2471 -23 -2558 0 -173 45 -307 178 -352 350 -22 88
-23 2471 0 2558 45 171 177 306 346 351 83 23 2478 23 2564 1z"/>
<path d="M1971 2331 c-205 -192 -374 -351 -375 -354 0 -3 152 -148 339 -322
187 -175 357 -334 378 -353 l37 -36 50 50 50 50 -330 304 -330 303 21 23 c12
13 160 150 330 306 l308 283 -47 48 c-25 26 -49 47 -52 46 -3 0 -173 -157
-379 -348z"/>
<path d="M5095 3804 c-38 -8 -113 -36 -165 -61 -78 -38 -110 -62 -175 -128
-66 -65 -89 -97 -127 -175 -82 -167 -78 -90 -78 -1475 0 -1382 -4 -1307 77
-1474 80 -167 237 -298 428 -357 57 -18 119 -19 1350 -19 1224 0 1293 1 1350
18 230 71 411 252 482 482 17 57 18 126 18 1350 0 1231 -1 1293 -19 1350 -59
191 -190 348 -357 428 -167 81 -90 77 -1481 76 -1042 -1 -1244 -3 -1303 -15z
m2590 -209 c172 -45 305 -179 350 -352 23 -86 23 -2470 0 -2556 -45 -173 -178
-307 -350 -352 -88 -22 -2471 -23 -2558 0 -173 45 -307 178 -352 350 -22 88
-23 2471 0 2558 45 171 177 306 346 351 83 23 2478 23 2564 1z"/>
<path d="M5737 2352 l-48 -48 348 -376 c191 -207 353 -376 358 -376 6 -1 153
153 329 341 175 188 334 358 353 378 l34 36 -54 46 -54 46 -303 -330 -303
-330 -33 33 c-17 18 -143 155 -279 303 -136 149 -259 282 -274 298 l-27 27
-47 -48z"/>
<path d="M9475 3804 c-38 -8 -113 -36 -165 -61 -78 -38 -110 -62 -175 -128
-66 -65 -89 -97 -127 -175 -82 -167 -78 -90 -78 -1475 0 -1382 -4 -1307 77
-1474 80 -167 237 -298 428 -357 57 -18 119 -19 1350 -19 1224 0 1293 1 1350
18 230 71 411 252 482 482 17 57 18 126 18 1350 0 1231 -1 1293 -19 1350 -59
191 -190 348 -357 428 -167 81 -90 77 -1481 76 -1042 -1 -1244 -3 -1303 -15z
m2590 -209 c172 -45 305 -179 350 -352 23 -86 23 -2470 0 -2556 -45 -173 -178
-307 -350 -352 -88 -22 -2471 -23 -2558 0 -173 45 -307 178 -352 350 -22 88
-23 2471 0 2558 45 171 177 306 346 351 83 23 2478 23 2564 1z"/>
<path d="M10401 2626 c-24 -24 -40 -49 -37 -55 5 -8 482 -449 643 -595 10 -9
-64 -82 -317 -315 -182 -167 -330 -306 -330 -310 0 -4 20 -26 44 -50 l45 -44
55 49 c127 112 705 650 705 656 1 8 -747 708 -757 708 -5 0 -27 -20 -51 -44z"/>
</g>
</svg>
