<?xml version="1.0" standalone="no"?>
<!DOCTYPE svg PUBLIC "-//W3C//DTD SVG 20010904//EN"
 "http://www.w3.org/TR/2001/REC-SVG-20010904/DTD/svg10.dtd">
<svg version="1.0" xmlns="http://www.w3.org/2000/svg"
 width="483.000000pt" height="483.000000pt" viewBox="0 0 483.000000 483.000000"
 preserveAspectRatio="xMidYMid meet">
<metadata>
Created by potrace 1.13, written by Peter Selinger 2001-2015
</metadata>
<g transform="translate(0.000000,483.000000) scale(0.100000,-0.100000)"
fill="#000000" stroke="none">
<path d="M2125 4808 c-431 -48 -871 -234 -1225 -516 -485 -387 -812 -983 -879
-1604 -14 -125 -14 -411 0 -536 100 -923 746 -1722 1626 -2012 264 -87 476
-120 763 -120 287 0 499 33 763 120 880 290 1526 1089 1626 2012 14 125 14
411 0 536 -57 533 -306 1050 -688 1433 -383 382 -900 631 -1433 688 -115 13
-439 12 -553 -1z m565 -333 c919 -131 1644 -856 1775 -1775 19 -137 19 -423 0
-560 -131 -919 -856 -1644 -1775 -1775 -137 -19 -423 -19 -560 0 -919 131
-1644 856 -1775 1775 -19 137 -19 423 0 560 84 593 417 1117 920 1451 247 164
551 280 847 323 129 19 437 19 568 1z"/>
<path d="M1430 3558 c-77 -53 -101 -139 -58 -215 13 -23 200 -239 416 -479
l393 -438 -460 -460 c-407 -408 -460 -465 -467 -499 -15 -87 15 -160 80 -191
39 -18 117 -21 149 -5 12 6 225 213 472 459 l450 449 395 -441 c217 -243 408
-449 425 -460 42 -25 117 -24 166 4 70 39 100 144 61 214 -9 17 -196 231 -415
475 l-398 443 460 461 c313 313 462 469 467 488 11 45 -1 122 -24 154 -12 17
-37 38 -56 47 -39 18 -117 21 -149 5 -12 -6 -224 -213 -472 -459 l-450 -449
-395 441 c-216 242 -408 449 -425 459 -43 27 -123 25 -165 -3z"/>
</g>
</svg>
