<?xml version="1.0" standalone="no"?>
<!DOCTYPE svg PUBLIC "-//W3C//DTD SVG 20010904//EN"
 "http://www.w3.org/TR/2001/REC-SVG-20010904/DTD/svg10.dtd">
<svg version="1.0" xmlns="http://www.w3.org/2000/svg"
 width="880.000000pt" height="874.000000pt" viewBox="0 0 880.000000 874.000000"
 preserveAspectRatio="xMidYMid meet">
<metadata>
Created by potrace 1.13, written by Peter Selinger 2001-2015
</metadata>
<g transform="translate(0.000000,874.000000) scale(0.100000,-0.100000)"
fill="#000000" stroke="none">
<path d="M1607 7182 c-790 -790 -1437 -1442 -1437 -1447 0 -5 611 -621 1357
-1367 l1358 -1358 -865 -865 -865 -865 83 -82 82 -83 865 865 865 865 1363
-1363 1362 -1362 1445 1445 1445 1445 -1363 1363 -1362 1362 867 867 868 868
-83 82 -82 83 -868 -868 -867 -867 -1360 1360 c-748 748 -1362 1360 -1365
1360 -3 0 -652 -647 -1443 -1438z m2728 -162 l1280 -1280 -1283 -1283 -1282
-1282 -1282 1282 -1283 1283 1280 1280 c704 704 1282 1280 1285 1280 3 0 581
-576 1285 -1280z m2730 -2730 l1280 -1280 -1283 -1283 -1282 -1282 -1282 1282
-1283 1283 1280 1280 c704 704 1282 1280 1285 1280 3 0 581 -576 1285 -1280z"/>
<path d="M2360 6545 l0 -95 285 0 285 0 0 -790 0 -790 115 0 115 0 0 790 0
790 285 0 285 0 0 95 0 95 -685 0 -685 0 0 -95z"/>
<path d="M5090 3815 l0 -95 280 0 280 0 0 -790 0 -790 120 0 120 0 0 790 0
790 285 0 285 0 0 95 0 95 -685 0 -685 0 0 -95z"/>
</g>
</svg>
