<?xml version="1.0" standalone="no"?>
<!DOCTYPE svg PUBLIC "-//W3C//DTD SVG 20010904//EN"
 "http://www.w3.org/TR/2001/REC-SVG-20010904/DTD/svg10.dtd">
<svg version="1.0" xmlns="http://www.w3.org/2000/svg"
 width="512.000000pt" height="512.000000pt" viewBox="0 0 512.000000 512.000000"
 preserveAspectRatio="xMidYMid meet">
<metadata>
Created by potrace 1.13, written by Peter Selinger 2001-2015
</metadata>
<g transform="translate(0.000000,512.000000) scale(0.100000,-0.100000)"
fill="#000000" stroke="none">
<path d="M1990 4503 c-65 -23 -162 -123 -183 -188 -20 -63 -26 -419 -27 -1549
l0 -809 -81 109 c-93 126 -153 175 -246 204 -239 74 -435 -58 -450 -302 -10
-153 -38 -102 540 -975 265 -401 333 -485 478 -593 91 -68 244 -148 350 -183
315 -105 737 -113 1031 -21 370 116 610 389 700 795 l23 104 0 860 0 860 -24
53 c-30 67 -122 154 -187 176 -112 38 -237 4 -320 -86 l-42 -45 -5 63 c-6 77
-33 136 -89 193 -66 66 -129 95 -213 95 -87 1 -151 -26 -216 -90 l-46 -46 -5
131 c-4 121 -7 134 -37 195 -56 114 -156 179 -276 180 -61 0 -78 -4 -133 -34
-35 -18 -79 -52 -98 -74 l-34 -40 0 45 c-4 472 -13 739 -27 784 -22 68 -118
165 -187 188 -61 21 -136 21 -196 0z m177 -108 c50 -21 72 -42 94 -90 18 -38
19 -90 19 -988 0 -1030 -2 -989 55 -1015 42 -19 74 -14 106 17 l29 29 0 499
c0 332 4 511 11 538 21 76 107 135 194 135 73 -1 154 -65 175 -138 6 -23 10
-223 10 -535 l0 -499 29 -29 c32 -31 64 -36 106 -17 53 24 55 40 55 384 0 303
1 320 21 362 32 66 86 97 169 97 83 0 137 -31 169 -97 20 -43 21 -57 21 -432
0 -412 2 -430 49 -456 36 -19 86 -12 115 16 l26 27 0 281 c0 165 4 297 11 319
13 47 63 106 106 123 86 36 197 3 245 -73 l23 -38 3 -815 c2 -536 -1 -843 -8
-897 -17 -132 -47 -231 -107 -353 -51 -103 -67 -125 -152 -211 -110 -110 -194
-164 -334 -214 -159 -57 -245 -70 -477 -70 -215 0 -284 8 -450 51 -101 26
-267 100 -347 155 -63 43 -194 169 -248 239 -78 101 -747 1125 -761 1164 -32
88 -11 180 56 246 86 87 212 93 314 15 19 -14 109 -129 202 -256 113 -156 172
-229 183 -227 15 3 16 127 21 1323 5 1201 6 1323 21 1350 46 83 155 118 246
80z"/>
</g>
</svg>
