<?xml version="1.0" standalone="no"?>
<!DOCTYPE svg PUBLIC "-//W3C//DTD SVG 20010904//EN"
 "http://www.w3.org/TR/2001/REC-SVG-20010904/DTD/svg10.dtd">
<svg version="1.0" xmlns="http://www.w3.org/2000/svg"
 width="740.000000pt" height="230.000000pt" viewBox="0 0 740.000000 230.000000"
 preserveAspectRatio="xMidYMid meet">
<metadata>
Created by potrace 1.13, written by Peter Selinger 2001-2015
</metadata>
<g transform="translate(0.000000,230.000000) scale(0.100000,-0.100000)"
fill="#000000" stroke="none">
<path d="M373 2215 c-29 -8 -72 -24 -94 -36 -53 -27 -131 -104 -158 -157 -51
-99 -51 -106 -51 -864 0 -479 4 -724 11 -760 26 -124 107 -224 227 -281 l67
-32 3321 0 3320 0 76 37 c91 45 147 103 191 196 l32 67 0 770 0 770 -32 67
c-57 120 -157 201 -281 227 -38 8 -963 11 -3315 10 -2778 0 -3270 -2 -3314
-14z m6667 -133 c60 -32 102 -73 131 -130 l24 -47 0 -750 0 -750 -24 -47 c-29
-57 -71 -98 -131 -130 l-45 -23 -3300 0 -3300 0 -47 24 c-57 29 -98 71 -130
131 l-23 45 0 750 0 750 24 45 c40 77 98 125 181 151 14 4 1503 7 3310 6
l3285 -2 45 -23z"/>
<path d="M1522 1153 l3 -308 2178 -3 2177 -2 0 305 0 305 -45 0 -45 0 0 -260
0 -260 -2090 0 -2090 0 0 265 0 265 -45 0 -45 0 2 -307z"/>
</g>
</svg>
