<?xml version="1.0" standalone="no"?>
<!DOCTYPE svg PUBLIC "-//W3C//DTD SVG 20010904//EN"
 "http://www.w3.org/TR/2001/REC-SVG-20010904/DTD/svg10.dtd">
<svg version="1.0" xmlns="http://www.w3.org/2000/svg"
 width="738.000000pt" height="473.000000pt" viewBox="0 0 738.000000 473.000000"
 preserveAspectRatio="xMidYMid meet">
<metadata>
Created by potrace 1.13, written by Peter Selinger 2001-2015
</metadata>
<g transform="translate(0.000000,473.000000) scale(0.100000,-0.100000)"
fill="#000000" stroke="none">
<path d="M2913 4685 c-29 -8 -72 -24 -94 -36 -53 -27 -131 -104 -158 -157 -51
-99 -51 -106 -51 -869 0 -483 4 -729 11 -765 26 -124 107 -224 227 -281 l67
-32 771 0 770 0 76 37 c91 45 147 103 191 196 l32 67 0 775 0 775 -32 67 c-57
120 -157 201 -281 227 -36 7 -280 11 -765 10 -581 0 -722 -3 -764 -14z m1569
-134 c57 -29 98 -71 130 -131 l23 -45 0 -755 0 -755 -23 -45 c-32 -60 -73
-102 -130 -131 l-47 -24 -750 0 -750 0 -47 24 c-57 29 -98 71 -130 131 l-23
45 0 755 0 755 24 45 c40 77 98 125 181 151 14 4 356 7 760 6 l735 -2 47 -24z"/>
<path d="M3190 3998 c0 -7 47 -186 104 -398 l103 -385 55 -3 54 -3 92 333 c51
183 92 339 92 347 0 37 18 -22 104 -336 l93 -338 53 0 53 0 103 375 c57 206
106 385 109 398 5 21 2 22 -48 22 l-53 0 -73 -302 c-94 -390 -87 -366 -94
-348 -3 8 -19 74 -36 145 -18 72 -56 213 -85 315 l-52 185 -64 0 -63 0 -64
-225 c-35 -124 -77 -274 -93 -335 l-28 -109 -10 39 c-6 22 -41 170 -77 330
-37 159 -69 293 -71 297 -9 14 -104 9 -104 -4z"/>
<path d="M363 2175 c-29 -8 -72 -24 -94 -36 -53 -27 -131 -104 -158 -157 -51
-99 -51 -106 -51 -864 0 -479 4 -724 11 -760 26 -124 107 -224 227 -281 l67
-32 771 0 770 0 76 37 c91 45 147 103 191 196 l32 67 0 770 0 770 -32 67 c-57
120 -157 201 -281 227 -36 7 -280 11 -765 10 -581 0 -722 -3 -764 -14z m1569
-134 c57 -29 98 -71 130 -131 l23 -45 0 -750 0 -750 -23 -45 c-32 -60 -73
-102 -130 -131 l-47 -24 -750 0 -750 0 -47 24 c-57 29 -98 71 -130 131 l-23
45 0 750 0 750 24 45 c40 77 98 125 181 151 14 4 356 7 760 6 l735 -2 47 -24z"/>
<path d="M1076 1492 c-9 -15 -296 -764 -296 -773 0 -5 24 -9 54 -9 l54 0 42
120 42 120 167 0 166 0 45 -117 45 -118 62 -3 62 -3 -95 233 c-52 128 -125
306 -162 396 l-66 162 -57 0 c-32 0 -60 -4 -63 -8z m194 -449 c0 -2 -58 -3
-130 -3 -71 0 -130 2 -130 4 0 2 24 71 54 152 29 82 57 164 61 183 7 31 13 19
76 -150 38 -101 69 -185 69 -186z"/>
<path d="M2913 2175 c-29 -8 -72 -24 -94 -36 -53 -27 -131 -104 -158 -157 -51
-99 -51 -106 -51 -864 0 -479 4 -724 11 -760 26 -124 107 -224 227 -281 l67
-32 771 0 770 0 76 37 c91 45 147 103 191 196 l32 67 0 770 0 770 -32 67 c-57
120 -157 201 -281 227 -36 7 -280 11 -765 10 -581 0 -722 -3 -764 -14z m1569
-134 c57 -29 98 -71 130 -131 l23 -45 0 -750 0 -750 -23 -45 c-32 -60 -73
-102 -130 -131 l-47 -24 -750 0 -750 0 -47 24 c-57 29 -98 71 -130 131 l-23
45 0 750 0 750 24 45 c40 77 98 125 181 151 14 4 356 7 760 6 l735 -2 47 -24z"/>
<path d="M3607 1509 c-133 -31 -211 -137 -186 -249 22 -96 76 -134 267 -184
193 -52 222 -72 222 -152 0 -79 -80 -134 -195 -134 -52 0 -133 24 -162 49 -30
25 -63 82 -63 109 0 20 -5 22 -54 22 l-55 0 6 -37 c15 -92 72 -166 156 -204
45 -21 68 -24 167 -24 106 0 119 2 173 29 132 64 173 223 86 329 -35 43 -107
78 -209 102 -200 47 -240 71 -240 144 1 72 62 112 175 113 112 0 175 -40 191
-122 7 -30 7 -31 53 -24 25 4 48 8 50 11 10 8 -22 99 -45 130 -61 81 -211 122
-337 92z"/>
<path d="M5453 2175 c-29 -8 -72 -24 -94 -36 -53 -27 -131 -104 -158 -157 -51
-99 -51 -106 -51 -864 0 -479 4 -724 11 -760 26 -124 107 -224 227 -281 l67
-32 776 0 775 0 76 37 c91 45 147 103 191 196 l32 67 0 770 0 770 -32 67 c-57
120 -157 201 -281 227 -36 7 -281 11 -770 10 -585 0 -727 -3 -769 -14z m1579
-134 c57 -29 98 -71 130 -131 l23 -45 0 -750 0 -750 -23 -45 c-32 -60 -73
-102 -130 -131 l-47 -24 -755 0 -755 0 -47 24 c-57 29 -98 71 -130 131 l-23
45 0 750 0 750 24 45 c40 77 98 125 181 151 14 4 358 7 765 6 l740 -2 47 -24z"/>
<path d="M5920 1108 l0 -398 170 0 c238 0 310 18 383 99 74 82 101 176 95 331
-6 137 -31 204 -103 277 -73 72 -110 81 -352 85 l-193 3 0 -397z m383 291 c48
-13 102 -61 128 -112 44 -84 41 -274 -5 -365 -48 -95 -98 -116 -276 -117
l-125 0 -3 303 -2 302 122 0 c68 0 140 -5 161 -11z"/>
</g>
</svg>
